<svg width="422" height="264" viewBox="0 0 422 264" fill="none" xmlns="http://www.w3.org/2000/svg">
<path d="M210.346 264C210.346 231.627 210.346 200.312 210.346 168.329C209.118 169.444 208.393 170.001 207.724 170.669C185.406 192.957 163.088 215.19 140.826 237.533C138.817 239.539 136.809 240.486 133.851 240.486C90.22 240.375 46.5886 240.431 2.95712 240.431C1.84122 240.431 0.781126 240.431 0 240.431C79.1726 161.42 158.401 82.3537 237.295 3.62178C237.295 34.0447 237.295 65.4149 237.295 97.5652C270.214 64.6349 302.575 32.3174 334.935 0C335.214 0.167159 335.493 0.334318 335.828 0.501477C335.828 2.11735 335.828 3.78894 335.828 5.40481C335.828 45.7459 335.828 86.0312 335.772 126.372C335.772 129.158 336.442 130.328 339.287 131.108C386.657 144.258 420.524 187.441 421.975 236.196C422.031 237.422 421.975 238.648 421.975 240.096C384.091 240.096 346.318 240.096 308.266 240.096C308.266 215.747 308.266 191.342 308.266 166.045C275.458 198.864 243.265 231.07 210.346 264Z" fill="url(#paint0_linear)"/>
<defs>
<linearGradient id="paint0_linear" x1="211" y1="32.2945" x2="421.701" y2="241.256" gradientUnits="userSpaceOnUse">
<stop stop-color="#0081FF"/>
<stop offset="0.208333" stop-color="#2790F7"/>
<stop offset="0.395833" stop-color="#277FD5"/>
<stop offset="1" stop-color="#03256C"/>
</linearGradient>
</defs>
</svg>
