<svg xmlns="http://www.w3.org/2000/svg" xmlns:wrs="http://www.wiris.com/xml/cvs-extension" height="91" width="153" wrs:baseline="51"><!--MathML: <math xmlns="http://www.w3.org/1998/Math/MathML" class="wrs_chemistry"><menclose notation="box"><menclose notation="box"><menclose notation="box"><menclose notation="box"><menclose notation="box"><menclose notation="box"><menclose notation="box"><menclose notation="box"><menclose notation="box"><menclose notation="box"><menclose notation="box"><menclose notation="box"><menclose notation="box"><menclose notation="box"><menclose notation="box"><menclose notation="box"><menclose notation="box"><menclose notation="box"><menclose notation="box"><menclose notation="box"><menclose notation="box"><menclose notation="box"><menclose notation="box"><menclose notation="box"><menclose notation="box"><menclose notation="box"><menclose notation="box"><menclose notation="box"><menclose notation="box"><menclose notation="box"><menclose notation="box"><menclose notation="box"><menclose notation="box"><menclose notation="box"><menclose notation="box"><menclose notation="box"/></menclose></menclose></menclose></menclose></menclose></menclose></menclose></menclose></menclose></menclose></menclose></menclose></menclose></menclose></menclose></menclose></menclose></menclose></menclose></menclose></menclose></menclose></menclose></menclose></menclose></menclose></menclose></menclose></menclose></menclose></menclose></menclose></menclose></menclose></menclose></math>--><defs><style type="text/css"/></defs><line stroke="#000000" stroke-linecap="square" stroke-width="1" x1="0.5" x2="0.5" y1="0.5" y2="89.5"/><line stroke="#000000" stroke-linecap="square" stroke-width="1" x1="151.5" x2="151.5" y1="0.5" y2="89.5"/><line stroke="#000000" stroke-linecap="square" stroke-width="1" x1="0.5" x2="151.5" y1="0.5" y2="0.5"/><line stroke="#000000" stroke-linecap="square" stroke-width="1" x1="0.5" x2="151.5" y1="89.5" y2="89.5"/><line stroke="#000000" stroke-linecap="square" stroke-width="1" x1="2.5" x2="2.5" y1="1.5" y2="88.5"/><line stroke="#000000" stroke-linecap="square" stroke-width="1" x1="149.5" x2="149.5" y1="1.5" y2="88.5"/><line stroke="#000000" stroke-linecap="square" stroke-width="1" x1="2.5" x2="149.5" y1="1.5" y2="1.5"/><line stroke="#000000" stroke-linecap="square" stroke-width="1" x1="2.5" x2="149.5" y1="88.5" y2="88.5"/><line stroke="#000000" stroke-linecap="square" stroke-width="1" x1="4.5" x2="4.5" y1="2.5" y2="87.5"/><line stroke="#000000" stroke-linecap="square" stroke-width="1" x1="147.5" x2="147.5" y1="2.5" y2="87.5"/><line stroke="#000000" stroke-linecap="square" stroke-width="1" x1="4.5" x2="147.5" y1="2.5" y2="2.5"/><line stroke="#000000" stroke-linecap="square" stroke-width="1" x1="4.5" x2="147.5" y1="87.5" y2="87.5"/><line stroke="#000000" stroke-linecap="square" stroke-width="1" x1="6.5" x2="6.5" y1="3.5" y2="86.5"/><line stroke="#000000" stroke-linecap="square" stroke-width="1" x1="145.5" x2="145.5" y1="3.5" y2="86.5"/><line stroke="#000000" stroke-linecap="square" stroke-width="1" x1="6.5" x2="145.5" y1="3.5" y2="3.5"/><line stroke="#000000" stroke-linecap="square" stroke-width="1" x1="6.5" x2="145.5" y1="86.5" y2="86.5"/><line stroke="#000000" stroke-linecap="square" stroke-width="1" x1="8.5" x2="8.5" y1="4.5" y2="85.5"/><line stroke="#000000" stroke-linecap="square" stroke-width="1" x1="143.5" x2="143.5" y1="4.5" y2="85.5"/><line stroke="#000000" stroke-linecap="square" stroke-width="1" x1="8.5" x2="143.5" y1="4.5" y2="4.5"/><line stroke="#000000" stroke-linecap="square" stroke-width="1" x1="8.5" x2="143.5" y1="85.5" y2="85.5"/><line stroke="#000000" stroke-linecap="square" stroke-width="1" x1="10.5" x2="10.5" y1="5.5" y2="84.5"/><line stroke="#000000" stroke-linecap="square" stroke-width="1" x1="141.5" x2="141.5" y1="5.5" y2="84.5"/><line stroke="#000000" stroke-linecap="square" stroke-width="1" x1="10.5" x2="141.5" y1="5.5" y2="5.5"/><line stroke="#000000" stroke-linecap="square" stroke-width="1" x1="10.5" x2="141.5" y1="84.5" y2="84.5"/><line stroke="#000000" stroke-linecap="square" stroke-width="1" x1="12.5" x2="12.5" y1="6.5" y2="83.5"/><line stroke="#000000" stroke-linecap="square" stroke-width="1" x1="139.5" x2="139.5" y1="6.5" y2="83.5"/><line stroke="#000000" stroke-linecap="square" stroke-width="1" x1="12.5" x2="139.5" y1="6.5" y2="6.5"/><line stroke="#000000" stroke-linecap="square" stroke-width="1" x1="12.5" x2="139.5" y1="83.5" y2="83.5"/><line stroke="#000000" stroke-linecap="square" stroke-width="1" x1="14.5" x2="14.5" y1="7.5" y2="82.5"/><line stroke="#000000" stroke-linecap="square" stroke-width="1" x1="137.5" x2="137.5" y1="7.5" y2="82.5"/><line stroke="#000000" stroke-linecap="square" stroke-width="1" x1="14.5" x2="137.5" y1="7.5" y2="7.5"/><line stroke="#000000" stroke-linecap="square" stroke-width="1" x1="14.5" x2="137.5" y1="82.5" y2="82.5"/><line stroke="#000000" stroke-linecap="square" stroke-width="1" x1="16.5" x2="16.5" y1="8.5" y2="81.5"/><line stroke="#000000" stroke-linecap="square" stroke-width="1" x1="135.5" x2="135.5" y1="8.5" y2="81.5"/><line stroke="#000000" stroke-linecap="square" stroke-width="1" x1="16.5" x2="135.5" y1="8.5" y2="8.5"/><line stroke="#000000" stroke-linecap="square" stroke-width="1" x1="16.5" x2="135.5" y1="81.5" y2="81.5"/><line stroke="#000000" stroke-linecap="square" stroke-width="1" x1="18.5" x2="18.5" y1="9.5" y2="80.5"/><line stroke="#000000" stroke-linecap="square" stroke-width="1" x1="133.5" x2="133.5" y1="9.5" y2="80.5"/><line stroke="#000000" stroke-linecap="square" stroke-width="1" x1="18.5" x2="133.5" y1="9.5" y2="9.5"/><line stroke="#000000" stroke-linecap="square" stroke-width="1" x1="18.5" x2="133.5" y1="80.5" y2="80.5"/><line stroke="#000000" stroke-linecap="square" stroke-width="1" x1="20.5" x2="20.5" y1="10.5" y2="79.5"/><line stroke="#000000" stroke-linecap="square" stroke-width="1" x1="131.5" x2="131.5" y1="10.5" y2="79.5"/><line stroke="#000000" stroke-linecap="square" stroke-width="1" x1="20.5" x2="131.5" y1="10.5" y2="10.5"/><line stroke="#000000" stroke-linecap="square" stroke-width="1" x1="20.5" x2="131.5" y1="79.5" y2="79.5"/><line stroke="#000000" stroke-linecap="square" stroke-width="1" x1="22.5" x2="22.5" y1="11.5" y2="78.5"/><line stroke="#000000" stroke-linecap="square" stroke-width="1" x1="129.5" x2="129.5" y1="11.5" y2="78.5"/><line stroke="#000000" stroke-linecap="square" stroke-width="1" x1="22.5" x2="129.5" y1="11.5" y2="11.5"/><line stroke="#000000" stroke-linecap="square" stroke-width="1" x1="22.5" x2="129.5" y1="78.5" y2="78.5"/><line stroke="#000000" stroke-linecap="square" stroke-width="1" x1="24.5" x2="24.5" y1="12.5" y2="77.5"/><line stroke="#000000" stroke-linecap="square" stroke-width="1" x1="127.5" x2="127.5" y1="12.5" y2="77.5"/><line stroke="#000000" stroke-linecap="square" stroke-width="1" x1="24.5" x2="127.5" y1="12.5" y2="12.5"/><line stroke="#000000" stroke-linecap="square" stroke-width="1" x1="24.5" x2="127.5" y1="77.5" y2="77.5"/><line stroke="#000000" stroke-linecap="square" stroke-width="1" x1="26.5" x2="26.5" y1="13.5" y2="76.5"/><line stroke="#000000" stroke-linecap="square" stroke-width="1" x1="125.5" x2="125.5" y1="13.5" y2="76.5"/><line stroke="#000000" stroke-linecap="square" stroke-width="1" x1="26.5" x2="125.5" y1="13.5" y2="13.5"/><line stroke="#000000" stroke-linecap="square" stroke-width="1" x1="26.5" x2="125.5" y1="76.5" y2="76.5"/><line stroke="#000000" stroke-linecap="square" stroke-width="1" x1="28.5" x2="28.5" y1="14.5" y2="75.5"/><line stroke="#000000" stroke-linecap="square" stroke-width="1" x1="123.5" x2="123.5" y1="14.5" y2="75.5"/><line stroke="#000000" stroke-linecap="square" stroke-width="1" x1="28.5" x2="123.5" y1="14.5" y2="14.5"/><line stroke="#000000" stroke-linecap="square" stroke-width="1" x1="28.5" x2="123.5" y1="75.5" y2="75.5"/><line stroke="#000000" stroke-linecap="square" stroke-width="1" x1="30.5" x2="30.5" y1="15.5" y2="74.5"/><line stroke="#000000" stroke-linecap="square" stroke-width="1" x1="121.5" x2="121.5" y1="15.5" y2="74.5"/><line stroke="#000000" stroke-linecap="square" stroke-width="1" x1="30.5" x2="121.5" y1="15.5" y2="15.5"/><line stroke="#000000" stroke-linecap="square" stroke-width="1" x1="30.5" x2="121.5" y1="74.5" y2="74.5"/><line stroke="#000000" stroke-linecap="square" stroke-width="1" x1="32.5" x2="32.5" y1="16.5" y2="73.5"/><line stroke="#000000" stroke-linecap="square" stroke-width="1" x1="119.5" x2="119.5" y1="16.5" y2="73.5"/><line stroke="#000000" stroke-linecap="square" stroke-width="1" x1="32.5" x2="119.5" y1="16.5" y2="16.5"/><line stroke="#000000" stroke-linecap="square" stroke-width="1" x1="32.5" x2="119.5" y1="73.5" y2="73.5"/><line stroke="#000000" stroke-linecap="square" stroke-width="1" x1="34.5" x2="34.5" y1="17.5" y2="72.5"/><line stroke="#000000" stroke-linecap="square" stroke-width="1" x1="117.5" x2="117.5" y1="17.5" y2="72.5"/><line stroke="#000000" stroke-linecap="square" stroke-width="1" x1="34.5" x2="117.5" y1="17.5" y2="17.5"/><line stroke="#000000" stroke-linecap="square" stroke-width="1" x1="34.5" x2="117.5" y1="72.5" y2="72.5"/><line stroke="#000000" stroke-linecap="square" stroke-width="1" x1="36.5" x2="36.5" y1="18.5" y2="71.5"/><line stroke="#000000" stroke-linecap="square" stroke-width="1" x1="115.5" x2="115.5" y1="18.5" y2="71.5"/><line stroke="#000000" stroke-linecap="square" stroke-width="1" x1="36.5" x2="115.5" y1="18.5" y2="18.5"/><line stroke="#000000" stroke-linecap="square" stroke-width="1" x1="36.5" x2="115.5" y1="71.5" y2="71.5"/><line stroke="#000000" stroke-linecap="square" stroke-width="1" x1="38.5" x2="38.5" y1="19.5" y2="70.5"/><line stroke="#000000" stroke-linecap="square" stroke-width="1" x1="113.5" x2="113.5" y1="19.5" y2="70.5"/><line stroke="#000000" stroke-linecap="square" stroke-width="1" x1="38.5" x2="113.5" y1="19.5" y2="19.5"/><line stroke="#000000" stroke-linecap="square" stroke-width="1" x1="38.5" x2="113.5" y1="70.5" y2="70.5"/><line stroke="#000000" stroke-linecap="square" stroke-width="1" x1="40.5" x2="40.5" y1="20.5" y2="69.5"/><line stroke="#000000" stroke-linecap="square" stroke-width="1" x1="111.5" x2="111.5" y1="20.5" y2="69.5"/><line stroke="#000000" stroke-linecap="square" stroke-width="1" x1="40.5" x2="111.5" y1="20.5" y2="20.5"/><line stroke="#000000" stroke-linecap="square" stroke-width="1" x1="40.5" x2="111.5" y1="69.5" y2="69.5"/><line stroke="#000000" stroke-linecap="square" stroke-width="1" x1="42.5" x2="42.5" y1="21.5" y2="68.5"/><line stroke="#000000" stroke-linecap="square" stroke-width="1" x1="109.5" x2="109.5" y1="21.5" y2="68.5"/><line stroke="#000000" stroke-linecap="square" stroke-width="1" x1="42.5" x2="109.5" y1="21.5" y2="21.5"/><line stroke="#000000" stroke-linecap="square" stroke-width="1" x1="42.5" x2="109.5" y1="68.5" y2="68.5"/><line stroke="#000000" stroke-linecap="square" stroke-width="1" x1="44.5" x2="44.5" y1="22.5" y2="67.5"/><line stroke="#000000" stroke-linecap="square" stroke-width="1" x1="107.5" x2="107.5" y1="22.5" y2="67.5"/><line stroke="#000000" stroke-linecap="square" stroke-width="1" x1="44.5" x2="107.5" y1="22.5" y2="22.5"/><line stroke="#000000" stroke-linecap="square" stroke-width="1" x1="44.5" x2="107.5" y1="67.5" y2="67.5"/><line stroke="#000000" stroke-linecap="square" stroke-width="1" x1="46.5" x2="46.5" y1="23.5" y2="66.5"/><line stroke="#000000" stroke-linecap="square" stroke-width="1" x1="105.5" x2="105.5" y1="23.5" y2="66.5"/><line stroke="#000000" stroke-linecap="square" stroke-width="1" x1="46.5" x2="105.5" y1="23.5" y2="23.5"/><line stroke="#000000" stroke-linecap="square" stroke-width="1" x1="46.5" x2="105.5" y1="66.5" y2="66.5"/><line stroke="#000000" stroke-linecap="square" stroke-width="1" x1="48.5" x2="48.5" y1="24.5" y2="65.5"/><line stroke="#000000" stroke-linecap="square" stroke-width="1" x1="103.5" x2="103.5" y1="24.5" y2="65.5"/><line stroke="#000000" stroke-linecap="square" stroke-width="1" x1="48.5" x2="103.5" y1="24.5" y2="24.5"/><line stroke="#000000" stroke-linecap="square" stroke-width="1" x1="48.5" x2="103.5" y1="65.5" y2="65.5"/><line stroke="#000000" stroke-linecap="square" stroke-width="1" x1="50.5" x2="50.5" y1="25.5" y2="64.5"/><line stroke="#000000" stroke-linecap="square" stroke-width="1" x1="101.5" x2="101.5" y1="25.5" y2="64.5"/><line stroke="#000000" stroke-linecap="square" stroke-width="1" x1="50.5" x2="101.5" y1="25.5" y2="25.5"/><line stroke="#000000" stroke-linecap="square" stroke-width="1" x1="50.5" x2="101.5" y1="64.5" y2="64.5"/><line stroke="#000000" stroke-linecap="square" stroke-width="1" x1="52.5" x2="52.5" y1="26.5" y2="63.5"/><line stroke="#000000" stroke-linecap="square" stroke-width="1" x1="99.5" x2="99.5" y1="26.5" y2="63.5"/><line stroke="#000000" stroke-linecap="square" stroke-width="1" x1="52.5" x2="99.5" y1="26.5" y2="26.5"/><line stroke="#000000" stroke-linecap="square" stroke-width="1" x1="52.5" x2="99.5" y1="63.5" y2="63.5"/><line stroke="#000000" stroke-linecap="square" stroke-width="1" x1="54.5" x2="54.5" y1="27.5" y2="62.5"/><line stroke="#000000" stroke-linecap="square" stroke-width="1" x1="97.5" x2="97.5" y1="27.5" y2="62.5"/><line stroke="#000000" stroke-linecap="square" stroke-width="1" x1="54.5" x2="97.5" y1="27.5" y2="27.5"/><line stroke="#000000" stroke-linecap="square" stroke-width="1" x1="54.5" x2="97.5" y1="62.5" y2="62.5"/><line stroke="#000000" stroke-linecap="square" stroke-width="1" x1="56.5" x2="56.5" y1="28.5" y2="61.5"/><line stroke="#000000" stroke-linecap="square" stroke-width="1" x1="95.5" x2="95.5" y1="28.5" y2="61.5"/><line stroke="#000000" stroke-linecap="square" stroke-width="1" x1="56.5" x2="95.5" y1="28.5" y2="28.5"/><line stroke="#000000" stroke-linecap="square" stroke-width="1" x1="56.5" x2="95.5" y1="61.5" y2="61.5"/><line stroke="#000000" stroke-linecap="square" stroke-width="1" x1="58.5" x2="58.5" y1="29.5" y2="60.5"/><line stroke="#000000" stroke-linecap="square" stroke-width="1" x1="93.5" x2="93.5" y1="29.5" y2="60.5"/><line stroke="#000000" stroke-linecap="square" stroke-width="1" x1="58.5" x2="93.5" y1="29.5" y2="29.5"/><line stroke="#000000" stroke-linecap="square" stroke-width="1" x1="58.5" x2="93.5" y1="60.5" y2="60.5"/><line stroke="#000000" stroke-linecap="square" stroke-width="1" x1="60.5" x2="60.5" y1="30.5" y2="59.5"/><line stroke="#000000" stroke-linecap="square" stroke-width="1" x1="91.5" x2="91.5" y1="30.5" y2="59.5"/><line stroke="#000000" stroke-linecap="square" stroke-width="1" x1="60.5" x2="91.5" y1="30.5" y2="30.5"/><line stroke="#000000" stroke-linecap="square" stroke-width="1" x1="60.5" x2="91.5" y1="59.5" y2="59.5"/><line stroke="#000000" stroke-linecap="square" stroke-width="1" x1="62.5" x2="62.5" y1="31.5" y2="58.5"/><line stroke="#000000" stroke-linecap="square" stroke-width="1" x1="89.5" x2="89.5" y1="31.5" y2="58.5"/><line stroke="#000000" stroke-linecap="square" stroke-width="1" x1="62.5" x2="89.5" y1="31.5" y2="31.5"/><line stroke="#000000" stroke-linecap="square" stroke-width="1" x1="62.5" x2="89.5" y1="58.5" y2="58.5"/><line stroke="#000000" stroke-linecap="square" stroke-width="1" x1="64.5" x2="64.5" y1="32.5" y2="57.5"/><line stroke="#000000" stroke-linecap="square" stroke-width="1" x1="87.5" x2="87.5" y1="32.5" y2="57.5"/><line stroke="#000000" stroke-linecap="square" stroke-width="1" x1="64.5" x2="87.5" y1="32.5" y2="32.5"/><line stroke="#000000" stroke-linecap="square" stroke-width="1" x1="64.5" x2="87.5" y1="57.5" y2="57.5"/><line stroke="#000000" stroke-linecap="square" stroke-width="1" x1="66.5" x2="66.5" y1="33.5" y2="56.5"/><line stroke="#000000" stroke-linecap="square" stroke-width="1" x1="85.5" x2="85.5" y1="33.5" y2="56.5"/><line stroke="#000000" stroke-linecap="square" stroke-width="1" x1="66.5" x2="85.5" y1="33.5" y2="33.5"/><line stroke="#000000" stroke-linecap="square" stroke-width="1" x1="66.5" x2="85.5" y1="56.5" y2="56.5"/><line stroke="#000000" stroke-linecap="square" stroke-width="1" x1="68.5" x2="68.5" y1="34.5" y2="55.5"/><line stroke="#000000" stroke-linecap="square" stroke-width="1" x1="83.5" x2="83.5" y1="34.5" y2="55.5"/><line stroke="#000000" stroke-linecap="square" stroke-width="1" x1="68.5" x2="83.5" y1="34.5" y2="34.5"/><line stroke="#000000" stroke-linecap="square" stroke-width="1" x1="68.5" x2="83.5" y1="55.5" y2="55.5"/><line stroke="#000000" stroke-linecap="square" stroke-width="1" x1="70.5" x2="70.5" y1="35.5" y2="54.5"/><line stroke="#000000" stroke-linecap="square" stroke-width="1" x1="81.5" x2="81.5" y1="35.5" y2="54.5"/><line stroke="#000000" stroke-linecap="square" stroke-width="1" x1="70.5" x2="81.5" y1="35.5" y2="35.5"/><line stroke="#000000" stroke-linecap="square" stroke-width="1" x1="70.5" x2="81.5" y1="54.5" y2="54.5"/></svg>